<svg width="262.901" height="89.8" viewBox="0 0 262.901 89.8" xmlns="http://www.w3.org/2000/svg"><g id="svgGroup" stroke-linecap="round" fill-rule="evenodd" font-size="9pt" stroke="#000" stroke-width="0.25mm" fill="#000" style="stroke:#000;stroke-width:0.25mm;fill:#000"><path d="M 12.4 68.9 L 4.7 72.3 A 19.393 19.393 0 0 1 3.912 70.475 Q 3.128 68.395 2.446 65.47 A 63.545 63.545 0 0 1 2.35 65.05 A 101.737 101.737 0 0 1 0.908 57.197 A 114.032 114.032 0 0 1 0.65 55.3 A 89.669 89.669 0 0 1 0.206 51.048 Q 0 48.45 0 46.2 L 10 46.2 A 32.517 32.517 0 0 0 11.687 52.166 Q 13.08 55.684 15.251 58.289 A 19.109 19.109 0 0 0 16.35 59.5 A 16.719 16.719 0 0 0 20.973 62.864 A 14.622 14.622 0 0 0 27.4 64.3 A 12.406 12.406 0 0 0 29.289 64.165 Q 31.074 63.89 32.25 63.05 Q 34 61.8 34.8 60 A 10.074 10.074 0 0 0 35.361 58.41 A 7.29 7.29 0 0 0 35.6 56.6 Q 35.6 53.3 33.4 50.9 Q 31.2 48.5 27.85 46.55 Q 24.5 44.6 21.1 43 A 58.786 58.786 0 0 1 14.561 39.3 Q 10.228 36.445 7.2 33.15 A 19.185 19.185 0 0 1 2.225 21.763 A 25.625 25.625 0 0 1 2.1 19.2 A 20.653 20.653 0 0 1 2.674 14.217 A 15.815 15.815 0 0 1 5.1 8.85 A 19.378 19.378 0 0 1 12.527 2.595 A 23.059 23.059 0 0 1 13.15 2.3 Q 18.2 0 24.5 0 A 34.733 34.733 0 0 1 27.03 0.099 Q 29.005 0.244 31.35 0.6 Q 34.374 1.059 36.548 1.988 A 13.037 13.037 0 0 1 37.8 2.6 L 46.3 0 A 11.975 11.975 0 0 1 47.33 2.199 Q 47.725 3.303 47.998 4.617 A 24.631 24.631 0 0 1 48.25 6.05 A 71.884 71.884 0 0 1 48.945 13.675 A 78.264 78.264 0 0 1 48.95 13.8 Q 49.1 17.8 49.1 21.1 L 49.1 22.6 L 40.8 22.6 A 41.264 41.264 0 0 0 39.564 18.469 Q 38.057 14.301 35.955 12.037 A 9.878 9.878 0 0 0 34.9 11.05 Q 31.1 8 26.7 8 Q 22.6 8 20.65 10.35 A 8.385 8.385 0 0 0 18.807 14.623 A 11.256 11.256 0 0 0 18.7 16.2 A 9.694 9.694 0 0 0 19.053 18.873 A 7.76 7.76 0 0 0 20.45 21.6 A 15.095 15.095 0 0 0 23.18 24.236 A 19.043 19.043 0 0 0 25 25.45 Q 27.8 27.1 30.9 28.7 A 113.252 113.252 0 0 1 35.267 30.876 A 135.159 135.159 0 0 1 38 32.35 Q 41.7 34.4 44.85 37.1 Q 48 39.8 49.95 43.5 A 16.604 16.604 0 0 1 51.614 48.562 A 22.23 22.23 0 0 1 51.9 52.2 Q 51.9 57.7 49.1 62.25 A 19.687 19.687 0 0 1 42.817 68.552 A 24.17 24.17 0 0 1 41.1 69.55 A 22.706 22.706 0 0 1 34.954 71.696 Q 32.249 72.243 29.146 72.295 A 39.054 39.054 0 0 1 28.5 72.3 A 35.934 35.934 0 0 1 24.704 72.088 A 47.955 47.955 0 0 1 21.05 71.55 A 38.175 38.175 0 0 1 16.592 70.429 A 50.783 50.783 0 0 1 12.4 68.9 Z M 166.2 68.9 L 158.5 72.3 A 19.393 19.393 0 0 1 157.712 70.475 Q 156.928 68.395 156.246 65.47 A 63.545 63.545 0 0 1 156.15 65.05 A 101.737 101.737 0 0 1 154.708 57.197 A 114.032 114.032 0 0 1 154.45 55.3 A 89.669 89.669 0 0 1 154.006 51.048 Q 153.8 48.45 153.8 46.2 L 163.8 46.2 A 32.517 32.517 0 0 0 165.487 52.166 Q 166.88 55.684 169.051 58.289 A 19.109 19.109 0 0 0 170.15 59.5 A 16.719 16.719 0 0 0 174.773 62.864 A 14.622 14.622 0 0 0 181.2 64.3 A 12.406 12.406 0 0 0 183.089 64.165 Q 184.874 63.89 186.05 63.05 Q 187.8 61.8 188.6 60 A 10.074 10.074 0 0 0 189.161 58.41 A 7.29 7.29 0 0 0 189.4 56.6 Q 189.4 53.3 187.2 50.9 Q 185 48.5 181.65 46.55 Q 178.3 44.6 174.9 43 A 58.786 58.786 0 0 1 168.361 39.3 Q 164.028 36.445 161 33.15 A 19.185 19.185 0 0 1 156.025 21.763 A 25.625 25.625 0 0 1 155.9 19.2 A 20.653 20.653 0 0 1 156.474 14.217 A 15.815 15.815 0 0 1 158.9 8.85 A 19.378 19.378 0 0 1 166.327 2.595 A 23.059 23.059 0 0 1 166.95 2.3 Q 172 0 178.3 0 A 34.733 34.733 0 0 1 180.83 0.099 Q 182.805 0.244 185.15 0.6 Q 188.174 1.059 190.348 1.988 A 13.037 13.037 0 0 1 191.6 2.6 L 200.1 0 A 11.975 11.975 0 0 1 201.13 2.199 Q 201.525 3.303 201.798 4.617 A 24.631 24.631 0 0 1 202.05 6.05 A 71.884 71.884 0 0 1 202.745 13.675 A 78.264 78.264 0 0 1 202.75 13.8 Q 202.9 17.8 202.9 21.1 L 202.9 22.6 L 194.6 22.6 A 41.264 41.264 0 0 0 193.364 18.469 Q 191.857 14.301 189.755 12.037 A 9.878 9.878 0 0 0 188.7 11.05 Q 184.9 8 180.5 8 Q 176.4 8 174.45 10.35 A 8.385 8.385 0 0 0 172.607 14.623 A 11.256 11.256 0 0 0 172.5 16.2 A 9.694 9.694 0 0 0 172.853 18.873 A 7.76 7.76 0 0 0 174.25 21.6 A 15.095 15.095 0 0 0 176.98 24.236 A 19.043 19.043 0 0 0 178.8 25.45 Q 181.6 27.1 184.7 28.7 A 113.252 113.252 0 0 1 189.067 30.876 A 135.159 135.159 0 0 1 191.8 32.35 Q 195.5 34.4 198.65 37.1 Q 201.8 39.8 203.75 43.5 A 16.604 16.604 0 0 1 205.414 48.562 A 22.23 22.23 0 0 1 205.7 52.2 Q 205.7 57.7 202.9 62.25 A 19.687 19.687 0 0 1 196.617 68.552 A 24.17 24.17 0 0 1 194.9 69.55 A 22.706 22.706 0 0 1 188.754 71.696 Q 186.049 72.243 182.946 72.295 A 39.054 39.054 0 0 1 182.3 72.3 A 35.934 35.934 0 0 1 178.504 72.088 A 47.955 47.955 0 0 1 174.85 71.55 A 38.175 38.175 0 0 1 170.392 70.429 A 50.783 50.783 0 0 1 166.2 68.9 Z M 99.6 55.6 L 99.6 28.1 Q 99.6 26.4 98.3 25.7 A 5.027 5.027 0 0 0 97.184 25.273 Q 96.628 25.128 95.962 25.06 A 12.443 12.443 0 0 0 94.7 25 L 94.7 20.6 Q 95.955 19.538 99.869 18.335 A 53.598 53.598 0 0 1 100.15 18.25 Q 104.3 17 109.5 17 Q 113.4 17 114.65 17.9 A 2.198 2.198 0 0 1 115.316 18.73 Q 115.713 19.53 115.84 20.892 A 15.217 15.217 0 0 1 115.9 22.3 L 115.9 55.9 A 14.485 14.485 0 0 0 115.993 57.598 Q 116.092 58.437 116.298 59.127 A 5.589 5.589 0 0 0 116.9 60.5 Q 117.9 62.1 120.4 62.1 Q 122.5 62.1 124.45 60.8 A 13.995 13.995 0 0 0 126.824 58.823 A 12.333 12.333 0 0 0 127.7 57.8 L 127.7 28.1 A 2.973 2.973 0 0 0 127.54 27.097 Q 127.211 26.172 126.2 25.7 A 6.365 6.365 0 0 0 124.95 25.28 Q 124.31 25.131 123.546 25.062 A 15.937 15.937 0 0 0 122.1 25 L 122.1 20.6 A 6.373 6.373 0 0 1 122.969 20.041 Q 124.454 19.226 127.322 18.335 A 55.296 55.296 0 0 1 127.6 18.25 A 26.946 26.946 0 0 1 131.736 17.358 Q 134.303 17 137.3 17 A 26.739 26.739 0 0 1 138.991 17.049 Q 141.528 17.211 142.6 17.9 A 2.326 2.326 0 0 1 143.397 18.826 Q 143.835 19.681 143.955 21.128 A 14.249 14.249 0 0 1 144 22.3 L 144 59.1 A 7.596 7.596 0 0 0 144.218 60.967 A 5.687 5.687 0 0 0 145.25 63.1 A 4.589 4.589 0 0 0 147.974 64.776 A 6.439 6.439 0 0 0 148.8 64.9 L 148.8 67.7 A 7.21 7.21 0 0 1 147.046 69.181 Q 146.199 69.703 145.123 70.107 A 15.891 15.891 0 0 1 143.75 70.55 A 26.687 26.687 0 0 1 139.535 71.366 A 22.636 22.636 0 0 1 137.1 71.5 A 10.471 10.471 0 0 1 133.839 71.008 A 9.115 9.115 0 0 1 131.35 69.75 A 8.028 8.028 0 0 1 128.467 65.907 A 10.7 10.7 0 0 1 128.1 64.7 A 15.594 15.594 0 0 1 116.798 71.366 A 20.824 20.824 0 0 1 114.4 71.5 A 18.29 18.29 0 0 1 109.861 70.969 A 12.588 12.588 0 0 1 103.5 67.2 A 14.478 14.478 0 0 1 100.195 60.845 Q 99.6 58.452 99.6 55.6 Z M 236 89.8 L 213.9 89.8 A 9.393 9.393 0 0 1 212.41 87.881 A 8.641 8.641 0 0 1 212.15 87.4 A 6.207 6.207 0 0 1 211.523 85.089 A 7.488 7.488 0 0 1 211.5 84.5 A 10.704 10.704 0 0 0 212.778 84.43 Q 214.698 84.198 215.35 83.2 A 4.08 4.08 0 0 0 215.807 82.203 Q 216.129 81.194 216.187 79.688 A 17.85 17.85 0 0 0 216.2 79 L 216.2 31.1 A 7.357 7.357 0 0 0 216.072 29.68 Q 215.914 28.876 215.559 28.261 A 3.524 3.524 0 0 0 214.75 27.3 A 3.963 3.963 0 0 0 213.614 26.667 Q 212.113 26.1 209.5 26.1 L 209.5 21.6 Q 211.7 20.3 214.75 19.2 Q 217.8 18.1 220.7 17.45 A 38.527 38.527 0 0 1 222.356 17.114 Q 224.118 16.8 225.3 16.8 A 8.279 8.279 0 0 1 226.791 16.927 Q 227.838 17.119 228.65 17.6 Q 229.634 18.183 230.22 19.617 A 8.737 8.737 0 0 1 230.6 20.8 Q 232.9 18.6 236.05 17.7 A 23.855 23.855 0 0 1 242.047 16.808 A 26.848 26.848 0 0 1 242.7 16.8 Q 248 16.8 252.6 19.55 A 18.723 18.723 0 0 1 258.204 24.777 A 24.349 24.349 0 0 1 260.05 27.8 A 23.389 23.389 0 0 1 262.048 33.4 Q 262.634 35.979 262.817 38.982 A 46.312 46.312 0 0 1 262.9 41.8 A 41.317 41.317 0 0 1 262.226 49.456 Q 261.332 54.2 259.25 58.05 A 27.053 27.053 0 0 1 253.873 65.088 A 24.459 24.459 0 0 1 249.45 68.35 A 26.714 26.714 0 0 1 236.267 71.897 A 31.426 31.426 0 0 1 235.8 71.9 Q 235.026 71.9 234.064 71.853 A 49.607 49.607 0 0 1 234 71.85 A 49.831 49.831 0 0 1 232.477 71.75 A 57.666 57.666 0 0 1 231.9 71.7 L 231.9 79 A 6.271 6.271 0 0 0 232.105 80.656 A 4.188 4.188 0 0 0 234 83.2 A 8.932 8.932 0 0 0 236.192 84.195 A 7.468 7.468 0 0 0 238.3 84.5 A 7.165 7.165 0 0 1 236.378 89.4 A 9.547 9.547 0 0 1 236 89.8 Z M 62.4 54.2 L 62.4 26.7 L 56.1 26.7 L 56.1 20.6 Q 58.8 20.2 61.2 17.2 A 24.87 24.87 0 0 0 63.559 13.632 A 34.18 34.18 0 0 0 65.35 9.8 A 34.731 34.731 0 0 0 67.413 2.375 A 31.841 31.841 0 0 0 67.6 1 Q 69.4 0.7 70.9 0.7 A 10.903 10.903 0 0 1 72.852 0.862 Q 73.928 1.059 74.751 1.492 A 4.588 4.588 0 0 1 76.45 3 A 11.201 11.201 0 0 1 77.332 4.546 Q 77.739 5.424 77.898 6.255 A 5.554 5.554 0 0 1 78 7.3 L 78 17.8 L 89.6 17.8 Q 89.6 20.2 89.35 22.55 A 10.653 10.653 0 0 1 88.777 25.083 A 9.02 9.02 0 0 1 88 26.7 L 78.2 26.7 L 78.2 54.9 Q 78.2 57.421 79.007 58.607 A 2.491 2.491 0 0 0 79.5 59.15 A 4.634 4.634 0 0 0 81.563 60.087 A 6.471 6.471 0 0 0 82.8 60.2 A 8.253 8.253 0 0 0 85.574 59.704 A 10.515 10.515 0 0 0 86.85 59.15 Q 88.81 58.146 89.993 56.822 A 7.869 7.869 0 0 0 90.1 56.7 A 3.992 3.992 0 0 1 91.149 58.047 Q 91.434 58.625 91.6 59.35 Q 91.924 60.767 91.985 61.626 A 5.248 5.248 0 0 1 92 62 A 6.966 6.966 0 0 1 91.414 64.75 A 9.657 9.657 0 0 1 90.5 66.4 Q 89.152 68.377 86.473 69.748 A 16.652 16.652 0 0 1 85.85 70.05 A 14.457 14.457 0 0 1 82.778 71.041 Q 81.281 71.357 79.538 71.455 A 29.015 29.015 0 0 1 77.9 71.5 A 19.809 19.809 0 0 1 72.747 70.848 A 17.445 17.445 0 0 1 70.2 69.95 A 11.504 11.504 0 0 1 65.651 66.283 A 15.1 15.1 0 0 1 64.55 64.6 Q 62.973 61.813 62.553 57.52 A 34.128 34.128 0 0 1 62.4 54.2 Z M 231.9 26.3 L 231.9 63.6 Q 233.6 64.6 235.7 64.6 A 6.78 6.78 0 0 0 240.251 62.818 Q 241.567 61.675 242.7 59.8 A 15.511 15.511 0 0 0 244.229 56.215 Q 245.6 51.626 245.6 44.2 Q 245.6 37.319 244.158 33.272 A 15.839 15.839 0 0 0 244.15 33.25 A 16.983 16.983 0 0 0 243.057 30.789 Q 241.86 28.612 240.2 27.45 A 9.383 9.383 0 0 0 234.7 25.7 A 7.225 7.225 0 0 0 233.288 25.832 A 5.481 5.481 0 0 0 231.9 26.3 Z" vector-effect="non-scaling-stroke"/></g></svg>